<?xml version="1.0"?>
<svg width="1024" height="1024" xmlns="http://www.w3.org/2000/svg" xmlns:svg="http://www.w3.org/2000/svg" enable-background="new 0 0 1024 1024" version="1.1" xml:space="preserve">
 <g class="layer">
  <title>Layer 1</title>
  <g id="svg_9">
   <path d="m307.49,977.85c-118.73,-53.25 -205.34,-138.6 -260.32,-255.96c-22.89,-48.89 -36.38,-100.56 -42.18,-154.3c-12.69,-117.5 13.76,-226.05 75.95,-325.68c50.49,-80.92 118.89,-142.85 204.29,-185.42c50.9,-25.36 104.64,-41.88 160.91,-49.55c46.11,-6.28 92.37,-6.15 138.43,0.96c147.7,22.76 264.06,96.64 349.44,218.97c44.29,63.46 71.57,134.33 82.97,211.21c13.56,91.5 2.48,180.05 -32.13,265.46c-28.92,71.37 -73.19,132.21 -129.96,184.07c-67.51,61.68 -146.3,101.36 -235.06,121.45c-83.15,18.82 -165.72,15.74 -247.63,-7.9c-21.9,-6.31 -43.15,-14.25 -64.75,-23.32m-21.12,-851.88c-58.4,34.59 -106.57,80.14 -144.74,136.36c-67.12,98.9 -89.83,207.74 -71.43,325.43c9.72,62.1 33.79,118.61 67.83,171.25c9.31,14.39 19.61,22.64 37.27,19.44c5.16,-0.92 10.62,-0.11 15.94,-0.18c2.02,-0.02 4.18,0.27 5.85,-1.39c3.08,-3.09 1.84,-36.17 -1.7,-38.49c-17.73,-11.6 -31.36,-27.76 -46.88,-41.85c-4.65,-4.22 -6.68,-9.55 -7.59,-15.6c-0.9,-5.98 -2.18,-13.16 2.71,-16.63c5.62,-3.97 13.1,-2.17 19.36,1.17c6.88,3.68 11.72,9.84 17.48,14.9c5.28,4.66 9.08,11.47 17.89,13.69c0,-9.16 -0.37,-17.41 0.12,-25.61c0.39,-6.79 -1.68,-10.46 -8.33,-13.37c-27.09,-11.86 -40.35,-35.89 -36.08,-65.15c3.16,-21.61 15.3,-37.33 35.35,-45.4c21.4,-8.63 42.62,-6.99 61.01,8c35.42,28.85 28.74,82.68 -12.27,102.19c-2.84,1.35 -6.83,1.83 -7.07,5.85c-0.67,10.8 -0.76,21.63 0.48,34.75c8.24,-7.9 14.93,-14.33 21.68,-20.68c7.66,-7.19 15.78,-13.52 26.98,-13.66c3.35,-0.04 7.09,0.07 7.41,4.43c0.78,11.19 2.45,22.52 -7.41,31.43c-11.4,10.32 -20.81,24.1 -33.92,30.93c-17.59,9.18 -17.62,22.46 -16.65,37.92c0.05,0.87 0.11,1.78 0,2.67c-1.12,7.97 2.61,10.14 10.18,10.05c25.69,-0.36 51.4,-0.43 77.1,0.04c8.49,0.16 11.2,-2.49 11.13,-11.1c-0.37,-45.05 -0.16,-90.1 -0.18,-135.15c-0.05,-131.29 -0.04,-262.58 -0.34,-393.88c-0.02,-7.95 2.3,-10.07 10.02,-9.87c20.96,0.52 41.95,0.21 62.92,0.21c12.43,0 12.48,-0.04 12.52,-12.08c0.05,-13.04 0.18,-26.07 -0.11,-39.11c-0.14,-6.21 0.71,-9.3 8.46,-9.71c13.9,-0.73 27.75,-0.55 41.61,-0.57c19.86,-0.04 20.09,0.11 20.71,-19.53c0.21,-6.44 2.94,-8.06 8.69,-7.93c10.94,0.25 21.86,0.05 32.8,0.05c14.8,0 14.8,0 14.82,14.81c0.02,11.84 2.41,13.64 14.25,13.21c15.92,-0.57 31.88,-0.32 47.83,-0.62c6.22,-0.11 9.01,2.08 8.81,8.84c-0.43,14.21 0.23,28.47 -0.32,42.67c-0.3,8.02 2.84,10.21 10.35,10.1c22.14,-0.36 44.31,0.07 66.47,-0.23c6.72,-0.09 9.4,1.73 9.36,8.98c-0.16,28.74 -0.27,57.46 -0.51,86.19c-0.41,48.82 0.44,97.66 0.57,146.49c0.18,64.59 0.3,129.17 0.14,193.77c-0.09,34.66 0.82,69.34 -0.92,103.99c-0.25,5.18 -0.69,10.33 7.14,10.3c28.07,-0.12 56.13,-0.09 84.2,0.04c4.93,0.02 6.97,-1.99 6.84,-6.88c-0.2,-8.89 -0.14,-17.78 -0.23,-26.68c-0.02,-2.37 -0.05,-4.75 -2.52,-6.21c-17.5,-10.4 -30.03,-26.55 -45.21,-39.64c-4.06,-3.5 -7.89,-7.51 -9.25,-12.79c-2.07,-7.99 -3.88,-16.58 0.87,-23.92c2.59,-4.02 16.51,-0.84 23.67,5.19c7.91,6.65 15.25,14 22.94,20.9c2.46,2.19 4.52,5.48 9.64,5c0,-9.44 -0.18,-18.59 0.05,-27.71c0.14,-5.07 -1.52,-7.91 -6.49,-10.03c-20.57,-8.82 -40.02,-30.06 -36.43,-62.69c3.88,-35.5 38.17,-60.43 72.78,-51.86c26.43,6.54 45.1,28.6 47.12,55.67c1.79,24.17 -14.5,49.12 -38.7,59.22c-2.43,1.01 -5.37,1.53 -5.57,4.91c-0.59,10.8 -0.76,21.57 0.6,34.7c8.23,-7.86 14.72,-14.16 21.33,-20.33c7.68,-7.15 15.69,-13.62 27.23,-12.5c3.16,0.3 6.33,0.82 6.86,4.3c1.42,9.44 2.77,19.6 -4.52,27.02c-15.26,15.54 -29.5,32.4 -48.93,43.25c-2.59,1.46 -3.71,3.49 -3.6,6.53c0.28,8.87 0.5,17.77 0.51,26.64c0.02,5.51 2.13,8.11 7.94,7.93c9.15,-0.3 18.31,-0.23 27.48,-0.11c6.77,0.09 11.44,-2.77 15.57,-8.29c22.36,-29.81 39.87,-62.28 53.4,-96.93c27,-69.18 35.49,-140.78 26.49,-214.47c-7.87,-64.45 -28.81,-124.32 -63.1,-179.47c-40.67,-65.43 -94.66,-117.02 -161.18,-155.48c-65,-37.58 -135.38,-56.16 -210.06,-58.94c-25.71,-0.96 -51.31,1.3 -76.73,5.16c-56.38,8.52 -109.35,26.8 -159.83,56.13m398.75,798.27c43.92,-19.28 84.37,-44 121.57,-75.55c-4.66,-4.27 -8.63,-3.34 -12.3,-3.33c-36.33,0.25 -72.65,0.73 -109,0.78c-13.19,0.02 -13.28,-0.43 -13.28,-13.36c0,-30.82 0.09,-61.64 0.11,-92.46c0,-2.6 0.83,-5.34 -1.17,-8.29c-9.54,-1.97 -19.61,-1.19 -29.5,-0.68c-8.63,0.46 -11.56,-3.06 -11.54,-11.04c0.04,-19.26 -0.23,-38.52 -0.21,-57.78c0,-17.13 0.09,-17.11 -16.72,-17.2c-69.73,-0.39 -139.46,0.84 -209.17,-0.78c-10.21,-0.25 -11.44,1.1 -11.45,11.86c-0.05,47.73 -0.2,95.45 -0.05,143.17c0.02,6.97 -1.08,11.38 -9.04,13.36c-14.18,3.5 -23.78,12.84 -27.76,27.16c-1.35,4.78 -3.88,5.48 -8.39,5.46c-39.31,-0.23 -78.59,-0.18 -117.9,-0.14c-3.1,0 -6.58,-0.91 -10.05,3.72c43.35,36.78 91.25,65.63 144.8,84.48c107.6,37.85 214.33,34.41 321.08,-9.37m-100.63,-511.65c0.27,15.37 0.6,30.73 0.74,46.1c0.05,5.74 2,8.7 8.35,8.47c9.72,-0.36 19.45,-0.2 29.18,-0.02c5.35,0.11 8.28,-1.55 8.21,-7.54c-0.2,-15.38 -0.11,-30.77 -0.04,-46.15c0.04,-5.18 -2.2,-7.54 -7.46,-7.47c-10.32,0.14 -20.64,0.04 -30.96,0.04c-3.83,-0.02 -7.11,0.8 -8.03,6.58m0.74,-74.27c-0.71,7.2 2.29,10.08 9.7,9.66c9.4,-0.53 18.86,-0.36 28.3,-0.07c5.83,0.16 7.8,-2.31 7.73,-7.91c-0.21,-14.8 -0.23,-29.59 0,-44.37c0.11,-6.69 -3.12,-8.89 -9.2,-8.79c-8.55,0.12 -17.11,0.28 -25.65,-0.09c-7.32,-0.3 -10.23,2.31 -10.99,10.05c-1.33,13.36 0.9,26.59 0.12,41.53m-147.42,-20.95c-0.02,-7.68 -0.18,-15.37 -0.05,-23.03c0.09,-5.23 -2.2,-7.58 -7.39,-7.52c-9.72,0.12 -19.43,0.02 -29.15,0.09c-6.01,0.05 -9.18,2.76 -9.13,9.21c0.12,15.06 0.12,30.13 -0.21,45.19c-0.11,5.19 1.93,6.7 6.74,6.62c10.6,-0.21 21.2,-0.18 31.79,-0.04c5.28,0.07 7.48,-2.31 7.41,-7.49c-0.12,-7.08 0,-14.17 0,-23.03m-45,265.6c0.43,4.34 3.44,4.98 6.97,4.98c10.03,-0.04 20.07,-0.16 30.1,0.07c5.67,0.12 8.01,-2.26 7.96,-7.9c-0.14,-15.1 -0.21,-30.2 -0.02,-45.3c0.07,-6.28 -2.85,-8.32 -8.65,-8.22c-9.15,0.18 -18.31,0.23 -27.44,-0.07c-6.93,-0.23 -9.47,2.86 -9.34,9.59c0.3,15.1 0.21,30.2 0.43,46.85m229.84,4.98c5.57,0.46 8.24,-2.06 8.23,-7.7c-0.05,-15.08 -0.05,-30.16 0.02,-45.24c0.04,-6.14 -3.14,-8.32 -8.88,-8.25c-9.43,0.11 -18.86,0.09 -28.3,-0.12c-6.08,-0.14 -8.53,2.79 -8.49,8.61c0.12,15.1 0.21,30.18 0.16,45.26c-0.02,5.78 2.75,7.7 8.26,7.52c9.13,-0.27 18.26,-0.07 29.01,-0.07m-189.12,-180.89c-11.1,-2.17 -22.29,-0.82 -33.42,-0.8c-4.95,0.02 -7.59,3.43 -7.62,8.11c-0.11,15.35 0.09,30.7 0.21,46.04c0.04,4.7 2.27,6.83 7.18,6.7c10,-0.21 20.02,-0.18 30.02,0.02c5.62,0.11 8.01,-2.26 7.96,-7.9c-0.16,-14.48 -0.05,-28.94 -0.09,-43.41c0,-3.01 -0.46,-5.9 -4.24,-8.77m56.31,-68.81c0.05,4.8 -0.57,9.82 6.84,9.66c10.64,-0.23 21.28,-0.14 31.91,-0.02c4.54,0.05 6.35,-1.99 6.33,-6.46c-0.04,-15.38 0.11,-30.77 0.07,-46.15c0,-5.8 -2.91,-8.57 -8.88,-8.47c-9.15,0.2 -18.31,0.23 -27.46,-0.04c-6.4,-0.18 -9.1,2.38 -8.97,8.91c0.27,13.62 0.12,27.26 0.16,42.56m43.4,246.85c3.97,-16.97 0.35,-34.15 1.42,-51.18c0.28,-4.54 -3.86,-6.69 -7.94,-6.83c-10.32,-0.37 -20.65,-0.28 -30.97,-0.36c-4.01,-0.02 -5.97,2.05 -5.97,6.03c0.04,16.29 0.04,32.56 0.14,48.85c0,2.74 0.5,6.05 3.86,5.99c12.87,-0.18 25.83,2.26 39.47,-2.51m-31.66,-179.13c-6.05,-0.14 -12.2,-0.84 -12.02,8.38c0.25,15.05 0.25,30.11 0.16,45.16c-0.04,5.73 2.48,7.81 8.07,7.65c9.4,-0.27 18.83,-0.32 28.24,0.02c7.13,0.27 9.24,-3.15 9.1,-9.67c-0.28,-13.85 -1.84,-27.66 -0.3,-41.56c0.69,-6.35 -2.84,-9.92 -9.52,-9.89c-7.34,0.04 -14.7,-0.04 -23.72,-0.07z" fill="#FFFFFF" id="svg_1" opacity="1"/>
   <path d="m562.33,678.71c10.03,0.02 19.18,0.21 28.31,-0.02c5.69,-0.14 7.93,2.22 7.82,7.86c-0.23,11.84 -0.39,23.67 -0.02,35.5c0.21,6.9 -2.23,9.28 -9.22,9.19c-29.79,-0.3 -59.57,-0.14 -89.36,-0.12c-22.71,0 -45.4,-0.18 -68.12,0.14c-7.32,0.11 -9.95,-2.69 -9.73,-9.89c0.32,-10.64 0.34,-21.31 -0.21,-31.94c-0.43,-7.97 2.13,-10.88 10.46,-10.81c43.06,0.34 86.11,0.12 130.06,0.09z" fill="#FFFFFF" id="svg_2" opacity="1"/>
   <path d="m435.48,841.26c19.2,9.43 27.92,25.63 24.31,44.28c-3.07,15.92 -17.09,29.18 -32.62,30.86c-17.76,1.9 -32.68,-5.5 -40.21,-19.95c-7.39,-14.21 -5.35,-32.24 5.09,-44.94c9.82,-11.92 25.92,-15.88 43.44,-10.24m-19.04,23.35c-7.09,3.97 -11.7,9.19 -8.44,17.96c2.59,6.94 10.51,11.03 17.14,9.11c6.72,-1.92 11.67,-9.66 10.55,-16.5c-1.26,-7.65 -8.3,-11.99 -19.25,-10.56z" fill="#FFFFFF" id="svg_3" opacity="1"/>
   <path d="m569.62,899.24c-12.38,-19.24 -5.71,-44.48 12.02,-54.76c18.4,-10.65 40.74,-5.87 53.1,11.88c11.47,16.47 8.16,37.67 -8.07,51.65c-14.15,12.18 -36.68,11.74 -50.1,-1.05c-2.34,-2.24 -4.38,-4.78 -6.95,-7.72m20.32,-13.96c2.29,3.65 5.23,6.38 9.77,6.74c7.25,0.6 12.61,-2.33 15.67,-8.96c2.68,-5.82 1.51,-11.01 -3.39,-15.1c-5.44,-4.54 -11.26,-6.37 -17.64,-1.71c-6.33,4.62 -8.21,10.48 -4.41,19.03z" fill="#FFFFFF" id="svg_4" opacity="1"/>
   <path d="m597.79,811.42c-10.34,-0.02 -19.79,-0.3 -29.22,0.04c-6.6,0.23 -8.88,-2.53 -8.71,-8.93c0.28,-10.35 0.16,-20.72 0,-31.07c-0.09,-5.25 2.09,-7.42 7.38,-7.38c22.71,0.12 45.44,0.11 68.15,-0.04c5.32,-0.04 7.39,2.15 7.3,7.42c-0.2,10.65 -0.25,21.32 0.02,31.98c0.14,6.33 -2.8,8.2 -8.63,8.07c-11.79,-0.23 -23.6,-0.09 -36.29,-0.09z" fill="#FFFFFF" id="svg_5" opacity="1"/>
   <path d="m532.39,798.15c-0.62,13.11 -0.62,13.14 -12.59,13.2c-9.11,0.04 -18.24,-0.11 -27.37,-0.05c-4.79,0.04 -6.93,-2.19 -6.9,-6.99c0.07,-11.22 0.11,-22.44 -0.05,-33.67c-0.07,-5.1 2.52,-6.62 7.13,-6.56c10.89,0.11 21.79,0.14 32.68,-0.02c5.34,-0.07 7.3,2.38 7.18,7.56c-0.2,8.55 -0.07,17.13 -0.07,26.53z" fill="#FFFFFF" id="svg_6" opacity="1"/>
   <path d="m431.33,764.08c24.75,-0.04 24.8,-0.04 24.73,24.17c-0.05,27.41 1.72,22.68 -23.9,23.24c-8,0.18 -11.13,-2.6 -10.66,-10.72c0.53,-9.12 0.39,-18.3 0.04,-27.42c-0.27,-6.62 1.72,-10.26 9.79,-9.27z" fill="#FFFFFF" id="svg_7" opacity="1"/>
  </g>
 </g>
</svg>
